<?xml version="1.0" standalone="no"?>
<!DOCTYPE svg PUBLIC "-//W3C//DTD SVG 20010904//EN"
 "http://www.w3.org/TR/2001/REC-SVG-20010904/DTD/svg10.dtd">
<svg version="1.0" xmlns="http://www.w3.org/2000/svg"
 width="3000.000000pt" height="3000.000000pt" viewBox="0 0 3000.000000 3000.000000"
 preserveAspectRatio="xMidYMid meet">
<metadata>
Created by potrace 1.11, written by Peter Selinger 2001-2013
</metadata>
<g transform="translate(0.000000,3000.000000) scale(0.100000,-0.100000)"
fill="#000000" stroke="none">
<path d="M19948 29925 c-1 -2 -91 -6 -198 -9 -107 -4 -226 -9 -265 -11 -38 -2
-115 -7 -170 -10 -114 -6 -227 -14 -300 -20 -27 -2 -81 -7 -120 -10 -38 -3
-94 -8 -123 -11 -30 -3 -79 -7 -110 -9 -31 -3 -73 -7 -92 -9 -19 -3 -60 -8
-90 -11 -30 -3 -71 -8 -90 -10 -19 -3 -53 -7 -75 -9 -78 -10 -202 -27 -221
-30 -10 -2 -46 -7 -79 -10 -33 -4 -67 -9 -75 -11 -8 -2 -33 -6 -55 -9 -22 -4
-51 -8 -65 -11 -14 -2 -41 -7 -60 -9 -42 -7 -57 -9 -230 -42 -74 -14 -181 -36
-238 -50 -56 -13 -113 -26 -125 -28 -97 -17 -663 -190 -742 -226 -11 -5 -51
-21 -90 -35 -38 -15 -79 -30 -90 -35 -11 -5 -69 -30 -130 -56 -188 -78 -491
-231 -690 -349 -179 -105 -575 -372 -615 -415 -3 -3 -34 -27 -70 -55 -36 -27
-76 -59 -90 -71 -14 -12 -74 -64 -135 -116 -135 -115 -429 -403 -550 -539 -49
-56 -94 -107 -100 -113 -5 -6 -32 -38 -60 -71 -27 -33 -52 -62 -55 -65 -13
-10 -208 -269 -280 -370 -187 -261 -373 -565 -520 -845 -29 -55 -56 -104 -60
-110 -5 -5 -8 -12 -8 -15 0 -3 -22 -51 -51 -107 -211 -421 -435 -1014 -571
-1513 -28 -101 -52 -194 -54 -205 -3 -11 -18 -76 -34 -145 -28 -117 -35 -147
-47 -210 -11 -57 -25 -126 -29 -147 -11 -52 -20 -119 -17 -133 2 -8 0 -12 -4
-8 -3 3 -20 53 -36 110 -77 268 -231 611 -364 813 -121 184 -285 371 -425 485
-30 25 -57 47 -60 50 -18 18 -169 115 -240 153 -167 90 -415 174 -594 201 -51
8 -220 8 -274 0 -99 -14 -209 -75 -277 -152 -63 -72 -115 -195 -134 -317 -11
-68 -10 -284 2 -302 4 -6 49 -21 100 -33 122 -29 389 -118 507 -170 752 -329
1235 -885 1489 -1712 12 -37 23 -75 24 -85 2 -10 7 -25 10 -33 3 -8 8 -28 11
-45 3 -16 16 -83 30 -148 14 -65 28 -139 31 -165 3 -26 7 -58 10 -72 7 -36 13
-93 21 -185 3 -44 8 -83 11 -87 2 -5 -8 -8 -24 -9 -15 -1 -62 -2 -103 -4 -135
-4 -414 -17 -465 -20 -27 -2 -95 -6 -150 -10 -55 -4 -113 -8 -130 -10 -16 -1
-66 -6 -110 -9 -44 -4 -96 -9 -115 -11 -19 -2 -62 -7 -95 -10 -33 -2 -76 -7
-95 -10 -19 -2 -57 -7 -85 -10 -94 -10 -342 -44 -376 -50 -13 -3 -45 -7 -73
-10 -28 -3 -69 -10 -91 -15 -22 -4 -60 -11 -85 -14 -25 -3 -56 -8 -70 -11 -27
-6 -60 -12 -112 -21 -18 -3 -91 -17 -163 -31 -176 -34 -167 -32 -190 -37 -11
-3 -60 -13 -110 -24 -230 -50 -524 -124 -750 -189 -66 -19 -128 -36 -137 -38
-82 -18 -799 -257 -883 -294 -11 -5 -102 -41 -202 -80 -178 -69 -469 -192
-628 -266 -44 -20 -105 -48 -135 -62 -158 -73 -589 -294 -689 -352 -28 -17
-54 -31 -56 -31 -3 0 -98 -55 -212 -121 -179 -105 -319 -191 -579 -359 -73
-47 -288 -193 -294 -200 -3 -3 -43 -32 -90 -65 -47 -32 -112 -79 -145 -104
-33 -25 -64 -49 -70 -53 -35 -26 -251 -193 -255 -198 -3 -3 -50 -41 -105 -85
-82 -64 -263 -217 -311 -260 -6 -5 -39 -35 -74 -65 -67 -59 -67 -59 -245 -225
-147 -137 -410 -399 -536 -537 -124 -134 -134 -144 -199 -218 -30 -35 -60 -68
-65 -74 -34 -36 -234 -277 -301 -361 -43 -55 -81 -102 -84 -105 -3 -3 -17 -21
-30 -40 -13 -19 -29 -40 -35 -47 -34 -41 -183 -245 -286 -393 -234 -336 -474
-728 -663 -1085 -21 -38 -41 -77 -46 -85 -4 -8 -13 -26 -19 -40 -6 -14 -15
-32 -21 -40 -32 -47 -244 -507 -326 -707 -20 -48 -42 -101 -49 -118 -48 -112
-159 -418 -233 -645 -158 -483 -276 -968 -361 -1485 -17 -99 -32 -198 -35
-220 -2 -22 -11 -94 -20 -160 -9 -66 -18 -149 -22 -185 -3 -36 -7 -78 -9 -95
-2 -16 -6 -68 -10 -115 -3 -47 -8 -101 -10 -120 -27 -249 -27 -1108 -1 -1425
2 -22 7 -80 11 -130 12 -142 11 -134 31 -310 10 -93 15 -131 19 -155 2 -14 6
-45 10 -70 6 -47 15 -114 20 -140 7 -38 17 -102 20 -123 3 -24 4 -31 41 -232
41 -221 136 -633 179 -775 8 -25 35 -117 60 -205 51 -175 101 -327 165 -505
23 -63 43 -119 44 -125 2 -5 7 -19 11 -30 4 -11 32 -81 60 -155 29 -75 62
-157 74 -182 11 -26 21 -49 21 -52 0 -2 13 -33 29 -68 15 -35 54 -121 86 -193
81 -181 326 -663 420 -825 43 -74 89 -155 103 -180 13 -25 30 -52 36 -60 7 -8
31 -46 54 -85 23 -38 48 -79 55 -89 6 -11 33 -54 59 -95 26 -42 51 -80 56 -86
4 -5 26 -37 47 -70 172 -262 528 -739 699 -935 17 -20 51 -60 76 -90 25 -29
50 -58 55 -64 6 -6 39 -45 75 -86 36 -41 67 -77 70 -80 3 -3 57 -61 119 -128
209 -226 514 -526 777 -762 210 -189 577 -488 824 -670 14 -10 54 -40 90 -67
163 -121 462 -323 688 -464 70 -44 134 -84 142 -89 20 -13 183 -110 241 -142
24 -14 73 -42 109 -63 185 -106 357 -196 625 -329 224 -111 222 -109 450 -211
83 -36 164 -73 181 -80 134 -62 608 -243 854 -327 273 -93 703 -225 826 -253
10 -2 55 -14 99 -26 44 -11 88 -23 98 -25 10 -2 27 -6 37 -9 10 -3 27 -8 37
-10 10 -2 74 -17 143 -34 111 -27 226 -52 300 -67 14 -3 59 -12 100 -21 41 -8
86 -17 100 -19 14 -2 45 -9 70 -14 50 -10 193 -36 254 -45 21 -3 48 -7 60 -10
12 -2 39 -7 61 -10 22 -3 114 -17 205 -30 156 -23 195 -28 308 -40 60 -7 118
-14 162 -20 19 -3 62 -7 95 -10 75 -6 179 -15 225 -20 20 -3 83 -7 140 -11 58
-3 130 -8 160 -10 394 -25 1057 -25 1355 1 22 2 87 6 145 9 58 4 123 9 145 11
22 3 69 7 105 10 138 13 140 13 280 29 14 2 54 6 90 10 36 4 77 9 91 12 15 2
47 6 70 9 24 3 71 10 104 15 33 5 80 12 105 15 25 3 56 8 70 10 14 3 41 7 60
10 19 3 46 7 60 10 14 3 41 7 60 10 19 3 58 10 85 15 28 6 64 12 80 14 17 2
88 16 158 30 71 14 141 28 155 31 55 10 72 14 80 18 4 3 24 8 44 11 21 3 86
18 145 32 60 14 116 28 125 30 10 2 26 6 35 8 15 3 83 21 203 52 8 2 40 10 70
18 209 52 680 201 985 311 813 294 1542 646 2310 1116 207 126 674 443 820
556 17 13 35 27 40 31 52 37 412 319 425 332 3 3 32 27 65 55 33 27 62 52 65
55 3 3 34 30 70 59 36 30 70 60 75 65 6 6 30 29 55 50 333 289 787 749 1087
1102 317 373 533 658 788 1039 217 323 350 543 529 873 116 213 291 571 371
757 7 17 23 53 35 80 38 85 145 354 195 490 26 72 51 139 55 150 14 33 106
313 140 425 17 58 37 126 45 151 44 143 175 678 199 814 2 17 7 39 9 50 2 11
7 36 11 55 3 19 8 44 10 55 2 11 6 36 10 55 3 19 8 45 10 56 8 39 33 203 42
269 3 28 8 57 9 66 2 9 6 40 10 70 3 30 10 88 15 129 5 41 12 102 15 135 4 33
8 76 10 95 2 19 7 73 10 120 4 47 8 100 10 118 26 221 26 1146 0 1437 -3 28
-7 79 -10 115 -15 178 -24 274 -31 325 -4 22 -8 54 -9 71 -4 36 -24 187 -30
224 -2 14 -9 57 -15 95 -30 192 -50 302 -81 455 -17 80 -33 156 -35 170 -10
50 -95 398 -125 505 -42 156 -167 560 -186 605 -3 8 -7 17 -8 20 -5 21 -29 91
-40 120 -8 19 -43 112 -79 205 -59 156 -133 341 -156 390 -11 23 -65 144 -101
225 -37 85 -251 512 -320 640 -34 63 -105 187 -157 275 -52 88 -103 176 -114
194 -11 19 -42 68 -69 109 -27 41 -49 77 -49 79 0 7 -296 441 -333 488 -4 6
-49 66 -100 135 -161 217 -325 424 -448 565 -14 17 -61 71 -105 120 -43 50
-90 103 -104 119 -115 131 -557 580 -710 721 -117 107 -306 275 -389 345 -29
25 -58 50 -65 55 -17 15 -118 98 -140 115 -11 8 -35 29 -55 45 -20 17 -65 53
-101 80 -36 27 -69 53 -75 58 -170 137 -604 440 -875 611 -85 54 -171 108
-190 121 -37 23 -190 114 -250 148 -19 11 -69 39 -110 62 -41 23 -106 59 -145
80 -38 21 -88 48 -110 60 -138 79 -573 289 -825 400 -85 37 -175 76 -199 87
-23 10 -118 48 -210 84 -91 36 -175 69 -186 74 -11 5 -85 32 -165 60 -80 29
-154 56 -165 60 -59 25 -482 159 -660 210 -176 51 -533 144 -585 154 -14 2
-55 11 -91 20 -81 18 -64 15 -329 69 -118 25 -233 47 -255 50 -22 4 -89 15
-150 26 -100 17 -185 31 -225 36 -8 1 -37 5 -65 9 -27 5 -61 10 -75 11 -81 12
-100 14 -145 20 -241 30 -397 46 -570 59 -38 3 -104 9 -145 12 -123 10 -322
19 -590 28 -25 1 -44 6 -43 11 0 6 4 42 7 80 4 39 9 88 11 110 14 116 20 516
10 680 -7 118 -22 282 -32 340 -2 17 -6 45 -9 62 -3 29 -22 139 -39 228 -3 17
-8 38 -11 49 -7 23 -2 19 82 -44 218 -167 555 -314 924 -405 148 -36 164 -40
235 -50 24 -4 84 -34 150 -74 205 -126 198 -122 401 -233 138 -75 465 -238
479 -238 2 0 30 -12 62 -26 96 -44 113 -51 258 -107 77 -30 149 -58 160 -62
11 -5 25 -9 30 -11 6 -1 62 -21 125 -43 159 -55 463 -146 570 -170 19 -5 94
-22 167 -39 72 -17 143 -34 158 -36 14 -3 51 -10 83 -16 31 -5 68 -12 82 -15
52 -11 197 -35 230 -39 14 -2 43 -6 65 -10 22 -4 58 -9 80 -11 61 -7 138 -17
156 -20 8 -2 55 -6 105 -10 49 -3 100 -8 114 -10 22 -4 76 -8 305 -21 77 -4
656 -4 715 0 25 2 101 7 170 10 69 4 143 9 165 11 22 2 69 7 105 10 36 3 101
10 145 15 44 5 105 12 135 15 30 3 66 8 80 10 14 2 61 9 105 15 119 17 132 19
225 36 47 9 96 17 110 19 14 2 50 9 80 15 30 6 64 13 75 15 31 4 343 73 410
90 33 9 67 17 76 19 356 88 943 272 1774 556 278 95 787 276 832 296 17 8 36
14 42 14 6 0 19 4 29 10 9 5 80 32 157 61 160 59 361 135 390 148 11 5 115 46
230 91 197 78 463 185 530 215 17 7 120 51 230 98 184 79 241 103 365 159 192
86 276 125 350 160 47 23 119 56 160 75 97 45 528 261 639 320 140 75 233 125
286 155 28 15 75 41 105 58 30 17 62 34 70 40 8 5 96 57 195 116 353 210 685
441 722 502 26 42 28 68 11 124 -15 52 -42 71 -223 161 -382 190 -809 351
-1290 487 -60 17 -117 33 -125 35 -8 2 -43 11 -77 20 -73 19 -77 20 -163 40
-204 48 -240 56 -261 60 -13 3 -80 16 -149 30 -133 26 -319 59 -385 69 -22 3
-51 8 -65 10 -43 8 -277 41 -355 51 -22 2 -56 7 -75 9 -19 3 -62 8 -95 11 -33
3 -71 8 -85 10 -14 2 -60 6 -102 10 -96 8 -140 13 -144 18 -8 7 1182 578 1256
602 14 5 63 26 135 60 99 46 592 260 660 287 28 11 64 26 80 33 82 38 613 249
765 305 41 15 134 48 205 74 72 26 141 51 155 57 57 24 667 224 714 234 17 4
40 11 151 45 134 41 476 127 675 170 84 19 119 26 220 45 14 3 36 7 50 10 30
6 71 12 125 20 22 3 63 10 90 15 28 5 75 12 105 15 30 3 66 8 80 10 37 6 159
18 305 30 82 6 264 14 480 20 99 3 198 8 220 11 105 13 123 16 160 25 22 5 48
12 59 14 24 6 46 24 46 39 0 18 -50 63 -96 87 -128 67 -448 180 -719 255 -49
14 -121 34 -160 45 -65 18 -441 116 -475 124 -8 2 -46 11 -85 20 -38 9 -81 19
-95 21 -14 3 -50 11 -80 19 -116 30 -690 155 -830 181 -14 3 -68 13 -120 24
-52 11 -108 22 -125 25 -16 2 -41 7 -55 10 -62 12 -139 28 -180 36 -25 5 -63
12 -85 15 -22 3 -42 7 -45 9 -3 2 -26 6 -50 10 -25 3 -79 13 -120 20 -41 8
-88 17 -105 20 -16 3 -59 10 -95 16 -36 6 -74 12 -85 14 -11 2 -58 10 -105 18
-47 9 -103 19 -125 22 -23 3 -52 8 -65 10 -29 6 -143 25 -180 30 -14 2 -38 6
-55 9 -16 2 -50 8 -75 11 -25 3 -70 10 -100 15 -30 5 -71 11 -90 14 -19 3 -46
8 -60 10 -22 4 -110 17 -220 32 -19 3 -46 7 -60 9 -14 2 -47 7 -75 11 -27 3
-59 8 -70 10 -11 2 -40 6 -65 9 -51 6 -113 15 -150 20 -14 3 -117 16 -230 30
-113 14 -221 28 -240 30 -70 9 -206 26 -250 31 -109 12 -129 14 -190 19 -36 4
-72 8 -80 10 -8 2 -51 7 -95 11 -44 3 -88 8 -97 9 -9 2 -52 7 -95 10 -43 4
-89 8 -103 10 -14 2 -59 7 -100 10 -41 4 -93 9 -115 11 -22 2 -69 6 -105 9
-36 3 -81 7 -100 10 -19 2 -78 7 -130 11 -52 3 -108 7 -125 9 -16 1 -70 6
-120 9 -49 4 -112 9 -140 11 -97 7 -221 16 -295 20 -41 2 -120 7 -175 10 -148
8 -254 13 -405 20 -74 3 -191 8 -260 11 -138 7 -1476 15 -1482 9z"/>
</g>
</svg>
